# xmcd
#
# Track frame offsets:
#	150
#	31763
#	58078
#	83273
#	123481
#	155964
#	182777
#	223120
#	264313
#	280262
#	302782
#
# Disc length: 4496 seconds
#
# Revision: 0
# Processed by: cddbd v1.5.2PL0 Copyright (c) Steve Scherf et al.
# Submitted via: audiograbber 1.83.01
#
DISCID=98118e0b
DTITLE=Grateful Dead - 92-02-22 Oakland Coliseum Arena, Oakland CA
DYEAR=1900
DGENRE=
TTITLE0=Bertha
TTITLE1=Promised Land
TTITLE2=Stagger Lee
TTITLE3=Wang Dang Doodle
TTITLE4=So Many Roads
TTITLE5=Queen Jane Approximately
TTITLE6=Loose Lucy
TTITLE7=Wave To The Wind
TTITLE8=Don't Ease Me In
TTITLE9=One More Saturday Night
TTITLE10=Mississippi Half-Step Uptown Toodeloo
EXTD=
EXTT0=
EXTT1=
EXTT2=
EXTT3=
EXTT4=
EXTT5=
EXTT6=
EXTT7=
EXTT8=
EXTT9=
EXTT10=
PLAYORDER=
